<svg width="100" height="427" viewBox="0 0 100 427" fill="none" xmlns="http://www.w3.org/2000/svg">
<g clip-path="url(#clip0_22_3271)">
<mask id="mask0_22_3271" style="mask-type:luminance" maskUnits="userSpaceOnUse" x="32" y="1" width="68" height="44">
<path d="M32.8395 29.64L50 44.59L99.6296 1.04004L32.8395 29.64Z" fill="white"/>
</mask>
<g mask="url(#mask0_22_3271)">
<path d="M79.9285 -31.055L13.9284 13.7334L52.383 76.5658L118.383 31.7773L79.9285 -31.055Z" fill="url(#paint0_linear_22_3271)"/>
</g>
<mask id="mask1_22_3271" style="mask-type:luminance" maskUnits="userSpaceOnUse" x="0" y="1" width="74" height="51">
<path d="M44.0742 39.52L41.8519 51.87L73.3334 24.05L58.0248 25.74L0.370454 1.04004L44.0742 39.52Z" fill="white"/>
</mask>
<g mask="url(#mask1_22_3271)">
<path d="M18.9456 -32.4469L-20.7874 38.8657L54.6027 85.4411L94.3357 14.1284L18.9456 -32.4469Z" fill="url(#paint1_linear_22_3271)"/>
</g>
</g>
<g clip-path="url(#clip1_22_3271)">
<path d="M80.9201 96V139.144H66.5387V119.729L56.951 139.144H43.768L33.701 119.49V139.144H19.0799V96H35.6186L50.4794 125.722L64.8608 96H80.9201Z" fill="white"/>
<path d="M80.9201 210.289H66.299L62.2242 202.858H37.7758L33.701 210.289H19.0799L42.5696 167.145H57.4304L80.9201 210.289ZM50.2397 180.328L43.2887 193.271H57.1907L50.2397 180.328Z" fill="white"/>
<path d="M59.8273 264.655V238.289H74.2088V281.433H59.8273L33.4613 255.067V281.433H19.0799V238.289H33.4613L59.8273 264.655ZM33.4613 281.433H19.0799V238.289L33.4613 281.433Z" fill="white"/>
<path d="M80.9201 352.577H66.299L62.2242 345.147H37.7757L33.701 352.577H19.0799L42.5696 309.433H57.4304L80.9201 352.577ZM50 322.616L43.049 335.559H56.951L50 322.616Z" fill="white"/>
<path d="M51.9175 399.752C55.7526 399.752 59.1083 399.992 61.9846 400.471C64.8608 400.951 67.2577 402.149 69.1753 403.827C71.0928 405.505 72.0515 408.142 72.0515 411.258C72.0515 417.25 69.4149 421.325 63.9021 423.482C58.6289 425.639 52.6366 426.598 45.9252 426.598C39.2139 426.598 33.2216 425.399 27.4691 423.242C21.7165 421.085 19.0799 417.01 19.0799 410.778H33.9407C33.9407 413.415 35.1392 415.093 37.5361 415.812C39.933 416.531 42.8093 417.01 46.165 417.01C49.5206 417.01 51.9175 416.531 54.0748 415.572C56.232 414.613 57.4304 413.175 57.4304 411.258C57.4304 410.059 56.7113 409.34 55.2732 408.621C53.8351 408.142 52.3969 407.662 50.9588 407.662C49.2809 407.662 47.6031 407.662 45.4459 407.662H41.1314C36.817 407.662 33.2217 407.423 30.1057 406.943C26.9897 406.464 24.3531 405.265 22.1959 403.348C20.0387 401.67 19.0799 398.794 19.0799 395.438C19.0799 389.446 21.7165 385.371 27.2294 383.453C32.7423 381.536 38.9742 380.577 45.9252 380.577C52.8763 380.577 58.3892 381.536 63.9021 383.693C69.4149 385.85 72.0515 389.925 72.0515 396.157H57.4304C57.4304 394.24 56.232 392.801 54.0748 391.843C51.9175 390.884 49.2809 390.404 45.9252 390.165C42.5696 390.165 39.6933 390.644 37.2964 391.363C34.8995 392.082 33.701 393.281 33.701 394.959C33.701 396.636 34.8995 397.835 37.2964 398.554C39.6933 399.033 42.3299 399.513 45.4459 399.513H51.9175V399.752Z" fill="white"/>
</g>
<defs>
<linearGradient id="paint0_linear_22_3271" x1="123.625" y1="3.07287" x2="72.2297" y2="34.5277" gradientUnits="userSpaceOnUse">
<stop stop-color="#28AAEE"/>
<stop offset="1" stop-color="white"/>
</linearGradient>
<linearGradient id="paint1_linear_22_3271" x1="54.3501" y1="25.7799" x2="-22.9833" y2="-17.3077" gradientUnits="userSpaceOnUse">
<stop stop-color="#28AAEE"/>
<stop offset="1" stop-color="white"/>
</linearGradient>
<clipPath id="clip0_22_3271">
<rect width="100" height="52" fill="white"/>
</clipPath>
<clipPath id="clip1_22_3271">
<rect width="61.8402" height="330.598" fill="white" transform="translate(19.0799 96)"/>
</clipPath>
</defs>
</svg>
